<svg xmlns="http://www.w3.org/2000/svg" xmlns:xlink="http://www.w3.org/1999/xlink" width="378" zoomAndPan="magnify" viewBox="0 0 282.96 283.499989" height="378" preserveAspectRatio="xMidYMid meet" version="1.0"><defs><clipPath id="30b3ef4174"><path d="M 0.230469 0 L 282.691406 0 L 282.691406 283 L 0.230469 283 Z M 0.230469 0 " clip-rule="nonzero"/></clipPath><clipPath id="29f19e087a"><path d="M 2.261719 14.757812 L 281.519531 14.757812 L 281.519531 268.558594 L 2.261719 268.558594 Z M 2.261719 14.757812 " clip-rule="nonzero"/></clipPath></defs><g clip-path="url(#30b3ef4174)"><path fill="none" d="M 0.230469 0 L 283.230469 0 L 283.230469 283 L 0.230469 283 Z M 0.230469 0 " fill-opacity="1" fill-rule="nonzero"/><path fill="none" d="M 0.230469 0 L 283.230469 0 L 283.230469 283 L 0.230469 283 Z M 0.230469 0 " fill-opacity="1" fill-rule="nonzero"/></g><path stroke-linecap="round" transform="matrix(0.751905, 0, 0, 0.752003, -1596.874598, -54.811055)" fill-opacity="1" fill="#000000" fill-rule="evenodd" stroke-linejoin="round" d="M 2387.051486 293.537085 C 2378.489897 301.687195 2368.317815 308.964635 2357.641805 312.159229 C 2290.671269 332.199461 2275.839148 284.218222 2270.747912 282.104076 C 2261.058978 278.078369 2256.591158 304.113009 2225.150178 304.206509 C 2218.822499 304.222092 2203.829328 298.986075 2191.231116 289.423072 C 2183.32931 283.428664 2176.378214 275.735667 2173.079301 266.567442 C 2168.601091 254.10593 2166.398352 236.346067 2172.47147 235.291591 C 2180.181056 233.946226 2189.568672 235.156535 2198.701726 237.379764 C 2215.461244 241.462611 2231.347979 248.973802 2234.329988 250.386696 C 2267.158071 265.907746 2275.200146 257.57583 2285.798229 262.676791 C 2311.898607 257.975803 2397.878155 246.231126 2409.84256 257.19144 " stroke="#000000" stroke-width="6.25" stroke-opacity="1" stroke-miterlimit="1.5"/><g clip-path="url(#29f19e087a)"><path stroke-linecap="round" transform="matrix(0.751905, 0, 0, 0.752003, -1596.874598, -54.811055)" fill="none" stroke-linejoin="round" d="M 2129.938868 414.490116 C 2136.271742 400.95335 2149.732347 402.916857 2184.041044 311.083976 C 2213.918288 231.125633 2188.311448 207.127222 2192.86239 194.021596 C 2202.208445 167.114287 2233.602669 159.65504 2219.731648 141.006924 C 2217.56008 138.10322 2193.818295 106.18845 2208.41144 97.150088 C 2218.401692 90.95829 2248.580254 107.336426 2251.738899 109.050599 C 2287.439893 128.425939 2297.970439 111.372523 2338.508108 123.709368 C 2379.851023 136.290353 2380.890051 143.100292 2421.869307 129.298609 C 2431.771241 125.963764 2431.7089 126.244265 2441.579663 123.179533 C 2470.028244 159.930347 2412.767423 175.492953 2462.557634 265.829829 C 2488.299547 312.538425 2492.69983 312.761787 2494.211615 338.531509 C 2495.292204 357.044569 2495.380522 394.756358 2494.351884 406.225728 C 2493.82198 412.027942 2495.229863 423.56484 2443.210937 426.598406 C 2411.53098 428.447634 2418.908077 398.756093 2419.360054 379.749559 C 2421.121207 305.30254 2395.862441 313.473428 2382.661593 286.145367 C 2373.222026 266.58822 2421.931648 240.776942 2443.979818 268.629644 C 2444.81104 269.678925 2457.279373 290.877521 2474.880504 295.37073 C 2475.077919 295.41748 2474.880504 295.37073 2477.431317 295.474619 " stroke="#000000" stroke-width="6.25" stroke-opacity="1" stroke-miterlimit="1.5"/></g><path stroke-linecap="round" transform="matrix(0.751905, 0, 0, 0.752003, -1596.874598, -54.811055)" fill="none" stroke-linejoin="round" d="M 2249.71799 314.413625 C 2260.300487 328.44906 2269.391981 323.109153 2283.657832 315.670685 " stroke="#000000" stroke-width="6.25" stroke-opacity="1" stroke-miterlimit="1.5"/><path stroke-linecap="round" transform="matrix(0.751905, 0, 0, 0.752003, -1596.874598, -54.811055)" fill="none" stroke-linejoin="round" d="M 2243.478628 333.633132 C 2267.391852 343.518192 2282.701926 346.224506 2302.988944 342.884468 " stroke="#000000" stroke-width="6.25" stroke-opacity="1" stroke-miterlimit="1.5"/><path stroke-linecap="round" transform="matrix(0.751905, 0, 0, 0.752003, -1596.874598, -54.811055)" fill="none" stroke-linejoin="round" d="M 2262.539592 324.823326 C 2262.84091 325.057076 2262.742203 325.077854 2266.150214 339.798958 " stroke="#000000" stroke-width="6.25" stroke-opacity="1" stroke-miterlimit="1.5"/><path stroke-linecap="round" transform="matrix(0.751905, 0, 0, 0.752003, -1596.874598, -54.811055)" fill="none" stroke-linejoin="round" d="M 2438.46258 125.792347 C 2436.628696 128.025966 2435.26757 138.326582 2422.38882 148.362281 C 2402.16934 164.122277 2400.839384 162.901579 2385.098114 185.497485 " stroke="#000000" stroke-width="6.25" stroke-opacity="1" stroke-miterlimit="1.5"/></svg>