<svg xmlns="http://www.w3.org/2000/svg" xmlns:xlink="http://www.w3.org/1999/xlink" width="378" zoomAndPan="magnify" viewBox="0 0 282.96 283.499989" height="378" preserveAspectRatio="xMidYMid meet" version="1.0"><defs><clipPath id="9c591a58f7"><path d="M 0.230469 0 L 282.691406 0 L 282.691406 283 L 0.230469 283 Z M 0.230469 0 " clip-rule="nonzero"/></clipPath><clipPath id="48a5be8478"><path d="M 34 24 L 272 24 L 272 258.960938 L 34 258.960938 Z M 34 24 " clip-rule="nonzero"/></clipPath><clipPath id="d294b66dcb"><path d="M 0.230469 161 L 66 161 L 66 194 L 0.230469 194 Z M 0.230469 161 " clip-rule="nonzero"/></clipPath><clipPath id="1bd87717ac"><path d="M 215 175 L 282.691406 175 L 282.691406 190 L 215 190 Z M 215 175 " clip-rule="nonzero"/></clipPath></defs><g clip-path="url(#9c591a58f7)"><path fill="none" d="M 0.230469 0 L 283.230469 0 L 283.230469 283 L 0.230469 283 Z M 0.230469 0 " fill-opacity="1" fill-rule="nonzero"/><path fill="none" d="M 0.230469 0 L 283.230469 0 L 283.230469 283 L 0.230469 283 Z M 0.230469 0 " fill-opacity="1" fill-rule="nonzero"/></g><g clip-path="url(#48a5be8478)"><path stroke-linecap="round" transform="matrix(1.190277, 0, 0, 1.096676, -1380.94934, -24.922874)" fill="none" stroke-linejoin="round" d="M 1368.690913 189.843044 C 1360.05978 217.209119 1350.460517 210.630291 1339.860306 226.719392 C 1330.999447 240.172687 1331.068365 241.095219 1315.830971 245.95365 C 1297.049234 251.944766 1295.158917 261.761361 1267.230805 254.263562 C 1255.091429 251.004424 1255.688717 249.462122 1243.148962 247.182506 C 1209.359556 241.031105 1216.100372 225.868098 1209.379247 214.256304 C 1196.38004 191.791403 1191.588613 193.134239 1191.920075 174.63017 C 1192.149801 161.26236 1190.738627 161.401274 1191.660812 147.926607 C 1192.55018 134.982664 1201.368375 136.403862 1198.401628 120.254208 C 1193.938381 96.011919 1193.278739 96.086718 1194.548796 71.438372 C 1196.130623 41.051805 1217.068503 44.407115 1221.400478 50.412478 C 1245.360895 83.559517 1248.688639 86.515894 1270.620904 90.786612 C 1291.230603 94.797311 1302.178686 112.8134 1344.730496 78.943295 C 1351.169386 73.814159 1363.600842 60.200578 1379.681658 61.593281 C 1386.409347 62.173871 1389.110268 72.186371 1383.511518 89.450899 C 1366.380526 142.298806 1363.938867 148.589121 1371.588741 172.086973 C 1375.080576 182.776235 1365.960456 183.905357 1368.690913 189.843044 Z M 1368.690913 189.843044 " stroke="#000000" stroke-width="3.54" stroke-opacity="1" stroke-miterlimit="1.5"/></g><path stroke-linecap="round" transform="matrix(1.190277, 0, 0, 1.096676, -1380.94934, -24.922874)" fill="none" stroke-linejoin="round" d="M 1245.17055 130.220404 C 1237.471449 128.286292 1221.351251 133.433237 1224.150626 145.351354 C 1226.579157 155.702235 1248.209496 159.071792 1253.949363 152.222258 C 1258.238675 147.096685 1260.030537 133.946151 1245.17055 130.220404 Z M 1245.17055 130.220404 " stroke="#000000" stroke-width="3.54" stroke-opacity="1" stroke-miterlimit="1.5"/><path stroke-linecap="round" transform="matrix(-1.169244, -0.205218, -0.222732, 1.077301, 1673.339033, 241.045149)" fill="none" stroke-linejoin="round" d="M 1245.171242 130.220522 C 1237.471629 128.286055 1221.350785 133.431583 1224.151681 145.350645 C 1226.579193 155.704686 1248.210567 159.074724 1253.948984 152.223371 C 1258.239487 147.097731 1260.029745 133.946565 1245.171242 130.220522 Z M 1245.171242 130.220522 " stroke="#000000" stroke-width="3.49" stroke-opacity="1" stroke-miterlimit="1.5"/><path stroke-linecap="round" transform="matrix(1.190277, 0, 0, 1.096676, -1380.94934, -24.922874)" fill="none" stroke-linejoin="round" d="M 1234.921491 197.294538 C 1241.409608 198.815469 1298.430871 202.929463 1317.560479 200.824381 " stroke="#000000" stroke-width="3.54" stroke-opacity="1" stroke-miterlimit="1.5"/><path stroke-linecap="round" transform="matrix(1.190277, 0, 0, 1.096676, -1380.94934, -24.922874)" fill="none" stroke-linejoin="round" d="M 1270.391178 199.221526 C 1270.299287 198.363108 1270.988465 191.577689 1271.011438 191.424527 C 1271.2707 189.355063 1271.310082 189.412054 1271.710461 188.076341 " stroke="#000000" stroke-width="3.54" stroke-opacity="1" stroke-miterlimit="1.5"/><path stroke-linecap="round" transform="matrix(1.190277, 0, 0, 1.096676, -1380.94934, -24.922874)" fill="none" stroke-linejoin="round" d="M 1239.191112 135.805463 C 1234.419376 136.621138 1228.131448 144.774326 1235.561442 148.321978 C 1243.260543 151.994297 1252.771197 143.221338 1245.89911 137.255156 C 1238.879341 131.153621 1230.130064 141.447512 1234.40953 145.800153 C 1238.449425 149.8999 1248.229187 143.516975 1245.879419 139.378048 C 1243.621541 135.392282 1233.441399 140.332637 1235.43017 144.450193 C 1237.189214 148.10114 1244.310719 141.657664 1241.399763 140.706637 C 1238.820269 139.858904 1235.738659 145.34423 1239.401147 143.673699 C 1239.578364 143.591775 1242.230058 142.21332 1243.939875 139.766295 " stroke="#000000" stroke-width="3.54" stroke-opacity="1" stroke-miterlimit="1.5"/><path stroke-linecap="round" transform="matrix(1.190277, 0, 0, 1.096676, -1285.629812, -15.684118)" fill="none" stroke-linejoin="round" d="M 1239.188489 135.805029 C 1234.420035 136.620704 1228.128825 144.773893 1235.558819 148.321545 C 1243.261202 151.993864 1252.768575 143.220905 1245.899769 137.254723 C 1238.88 131.153188 1230.130723 141.447079 1234.410189 145.79972 C 1238.450084 149.899467 1248.229846 143.516542 1245.880078 139.377615 C 1243.618918 135.395411 1233.438777 140.335766 1235.430829 144.44976 C 1237.189873 148.100707 1244.311378 141.657231 1241.400422 140.706203 C 1238.820928 139.858471 1235.739318 145.343797 1239.398524 143.673266 C 1239.579023 143.591342 1242.230717 142.216449 1243.940534 139.765862 " stroke="#000000" stroke-width="3.54" stroke-opacity="1" stroke-miterlimit="1.5"/><path stroke-linecap="round" transform="matrix(1.190277, 0, 0, 1.096676, -1380.94934, -24.922874)" fill="none" stroke-linejoin="round" d="M 1356.869871 82.950432 C 1358.251509 80.642321 1371.070217 70.334183 1374.059936 77.896096 C 1377.791342 87.342255 1364.91028 107.548912 1355.668733 125.030716 " stroke="#000000" stroke-width="3.54" stroke-opacity="1" stroke-miterlimit="1.5"/><path stroke-linecap="round" transform="matrix(1.190277, 0, 0, 1.096676, -1380.94934, -24.922874)" fill="none" stroke-linejoin="round" d="M 1219.480625 70.248698 C 1219.060555 69.422337 1214.331482 60.122217 1208.38158 67.078607 C 1204.518902 71.60222 1203.248846 79.997617 1210.47865 106.800913 " stroke="#000000" stroke-width="3.54" stroke-opacity="1" stroke-miterlimit="1.5"/><g clip-path="url(#d294b66dcb)"><path stroke-linecap="round" transform="matrix(1.190277, 0, 0, 1.096676, -1380.94934, -24.922874)" fill="none" stroke-linejoin="round" d="M 1213.248488 171.317603 C 1202.408705 172.058478 1197.518824 180.015762 1191.969302 182.288254 C 1187.919561 183.9481 1180.528949 184.838574 1174.490438 189.258892 C 1168.458491 193.67921 1168.868716 194.234866 1162.190255 197.625795 " stroke="#000000" stroke-width="3.54" stroke-opacity="1" stroke-miterlimit="1.5"/></g><path stroke-linecap="round" transform="matrix(1.190277, 0, 0, 1.096676, -1380.94934, -24.922874)" fill="none" stroke-linejoin="round" d="M 1214.20021 180.001515 C 1198.539464 184.621299 1203.580308 191.713041 1194.640686 196.542977 C 1190.571255 198.740669 1186.560896 198.729983 1183.830439 200.475314 C 1181.78916 201.782532 1182.560383 202.69794 1169.938583 212.41124 " stroke="#000000" stroke-width="3.54" stroke-opacity="1" stroke-miterlimit="1.5"/><path stroke-linecap="round" transform="matrix(1.190277, 0, 0, 1.096676, -1380.94934, -24.922874)" fill="none" stroke-linejoin="round" d="M 1217.751117 190.957918 C 1211.958741 195.716616 1215.000969 198.427222 1208.80165 202.541216 C 1203.3112 206.181478 1202.208515 204.998927 1198.739654 210.559053 C 1191.349041 222.405931 1183.748394 223.627663 1181.608661 224.436214 " stroke="#000000" stroke-width="3.54" stroke-opacity="1" stroke-miterlimit="1.5"/><g clip-path="url(#1bd87717ac)"><path stroke-linecap="round" transform="matrix(1.190277, 0, 0, 1.096676, -1380.94934, -24.922874)" fill="none" stroke-linejoin="round" d="M 1343.020678 184.553622 C 1356.200384 185.882211 1356.269302 186.078116 1360.358424 188.931197 C 1361.999324 190.081691 1367.539001 188.404036 1371.44106 189.568777 C 1373.380604 190.149367 1384.748757 193.543857 1396.369608 193.900047 " stroke="#000000" stroke-width="3.54" stroke-opacity="1" stroke-miterlimit="1.5"/></g><path stroke-linecap="round" transform="matrix(1.190277, 0, 0, 1.096676, -1380.94934, -24.922874)" fill="none" stroke-linejoin="round" d="M 1342.190383 192.564335 C 1354.090187 193.743324 1352.258943 198.298994 1358.589534 200.339962 C 1364.788853 202.34175 1365.310659 200.963295 1370.699374 204.546566 C 1373.088524 206.131611 1378.450984 206.89742 1380.239564 207.684599 C 1385.129445 209.814615 1384.768447 210.359586 1389.720683 212.475355 " stroke="#000000" stroke-width="3.54" stroke-opacity="1" stroke-miterlimit="1.5"/><path stroke-linecap="round" transform="matrix(1.190277, 0, 0, 1.096676, -1380.94934, -24.922874)" fill="none" stroke-linejoin="round" d="M 1335.981219 200.225981 C 1341.61935 203.677462 1341.809694 203.54211 1345.091494 209.187721 C 1346.860384 212.240269 1352.488669 213.159239 1354.818747 217.362281 C 1356.390729 220.197553 1355.941122 220.617857 1358.868487 222.078236 C 1365.199078 225.237641 1365.169542 225.134346 1371.099753 228.931331 " stroke="#000000" stroke-width="3.54" stroke-opacity="1" stroke-miterlimit="1.5"/><path stroke-linecap="round" transform="matrix(1.190277, 0, 0.17781, 1.096676, -1414.85295, -22.016718)" fill="none" stroke-linejoin="round" d="M 1258.431638 173.21262 C 1262.699956 167.136019 1286.879252 158.904468 1294.791405 176.920557 " stroke="#000000" stroke-width="3.27" stroke-opacity="1" stroke-miterlimit="1.5"/><path stroke-linecap="round" transform="matrix(1.190277, 0, 0, 1.096676, -1380.94934, -24.922874)" fill="none" stroke-linejoin="round" d="M 1256.571521 176.628396 C 1257.178654 176.18672 1260.329181 175.346112 1262.311388 175.620378 C 1264.720229 175.951635 1266.899343 177.871499 1267.230805 178.167136 C 1259.420123 175.83053 1256.791402 177.682718 1256.571521 176.628396 Z M 1256.571521 176.628396 " stroke="#000000" stroke-width="3.54" stroke-opacity="1" stroke-miterlimit="1.5"/><path stroke-linecap="round" transform="matrix(1.18371, 0.115025, -0.124842, 1.090629, -1350.071113, -171.887413)" fill="none" stroke-linejoin="round" d="M 1292.290143 178.920673 C 1292.139971 178.685796 1291.651489 177.90279 1288.891264 178.358658 C 1285.410606 178.929906 1282.451327 180.721232 1281.949132 181.028494 C 1283.870134 180.750677 1286.308742 179.748503 1288.560894 179.575445 C 1289.821529 179.481888 1291.768958 179.423347 1292.290143 178.920673 Z M 1292.290143 178.920673 " stroke="#000000" stroke-width="3.57" stroke-opacity="1" stroke-miterlimit="1.5"/></svg>